ExploreSansVariable-Normal.ufo
<glyph name="exclam" format="2">
  <advance width="255"/>
  <unicode hex="0021"/>
  <outline>
    <contour>
      <point x="79" y="716" type="line"/>
      <point x="179" y="716" type="line"/>
      <point x="166" y="207" type="line"/>
      <point x="88" y="207" type="line"/>
    </contour>
    <contour>
      <point x="127" y="119" type="curve" smooth="yes"/>
      <point x="168" y="119"/>
      <point x="190" y="86"/>
      <point x="190" y="55" type="curve" smooth="yes"/>
      <point x="190" y="22"/>
      <point x="167" y="-7"/>
      <point x="127" y="-7" type="curve" smooth="yes"/>
      <point x="87" y="-7"/>
      <point x="64" y="22"/>
      <point x="64" y="55" type="curve" smooth="yes"/>
      <point x="64" y="86"/>
      <point x="86" y="119"/>
    </contour>
  </outline>
</glyph>
<glyph name="dollar" format="2">
  <advance width="594"/>
  <unicode hex="0024"/>
  <outline>
    <contour>
      <point x="274" y="863" type="line"/>
      <point x="338" y="863" type="line"/>
      <point x="338" y="-139" type="line"/>
      <point x="274" y="-139" type="line"/>
    </contour>
    <component base="S"/>
  </outline>
</glyph>
<glyph name="ampersand" format="2">
  <advance width="713"/>
  <unicode hex="0026"/>
  <outline>
    <contour>
      <point x="338" y="716" type="curve" smooth="yes"/>
      <point x="409" y="716"/>
      <point x="464" y="687"/>
      <point x="507" y="659" type="curve"/>
      <point x="473" y="605" type="line"/>
      <point x="434" y="631"/>
      <point x="395" y="652"/>
      <point x="338" y="652" type="curve" smooth="yes"/>
      <point x="262" y="652"/>
      <point x="217" y="605"/>
      <point x="217" y="548" type="curve" smooth="yes"/>
      <point x="217" y="502"/>
      <point x="237" y="476"/>
      <point x="270" y="434" type="curve"/>
      <point x="638" y="0" type="line"/>
      <point x="539" y="0" type="line"/>
      <point x="213" y="392" type="line"/>
      <point x="155" y="463"/>
      <point x="137" y="494"/>
      <point x="137" y="559" type="curve" smooth="yes"/>
      <point x="137" y="631"/>
      <point x="205" y="716"/>
    </contour>
    <contour>
      <point x="205" y="411" type="line"/>
      <point x="246" y="361" type="line"/>
      <point x="197" y="323" type="line" smooth="yes"/>
      <point x="146" y="283"/>
      <point x="127" y="230"/>
      <point x="127" y="180" type="curve" smooth="yes"/>
      <point x="127" y="109"/>
      <point x="173" y="56"/>
      <point x="264" y="56" type="curve" smooth="yes"/>
      <point x="344" y="56"/>
      <point x="413" y="103"/>
      <point x="435" y="175" type="curve"/>
      <point x="510" y="428" type="line"/>
      <point x="681" y="415" type="line"/>
      <point x="681" y="346" type="line"/>
      <point x="563" y="354" type="line"/>
      <point x="549" y="308"/>
      <point x="520" y="207"/>
      <point x="504" y="153" type="curve" smooth="yes"/>
      <point x="477" y="61"/>
      <point x="374" y="-8"/>
      <point x="256" y="-8" type="curve" smooth="yes"/>
      <point x="124" y="-8"/>
      <point x="48" y="74"/>
      <point x="48" y="180" type="curve" smooth="yes"/>
      <point x="48" y="260"/>
      <point x="99" y="326"/>
      <point x="161" y="376" type="curve" smooth="yes"/>
    </contour>
  </outline>
</glyph>
<glyph name="colon" format="2">
  <advance width="254"/>
  <unicode hex="003A"/>
  <outline>
    <contour>
      <point x="126" y="528" type="curve" smooth="yes"/>
      <point x="163" y="528"/>
      <point x="190" y="501"/>
      <point x="190" y="465" type="curve" smooth="yes"/>
      <point x="190" y="429"/>
      <point x="163" y="402"/>
      <point x="126" y="402" type="curve" smooth="yes"/>
      <point x="90" y="402"/>
      <point x="64" y="429"/>
      <point x="64" y="465" type="curve" smooth="yes"/>
      <point x="64" y="501"/>
      <point x="90" y="528"/>
    </contour>
    <contour>
      <point x="126" y="118" type="curve" smooth="yes"/>
      <point x="162" y="118"/>
      <point x="190" y="90"/>
      <point x="190" y="54" type="curve" smooth="yes"/>
      <point x="190" y="19"/>
      <point x="163" y="-8"/>
      <point x="126" y="-8" type="curve" smooth="yes"/>
      <point x="89" y="-8"/>
      <point x="64" y="17"/>
      <point x="64" y="54" type="curve" smooth="yes"/>
      <point x="64" y="91"/>
      <point x="90" y="118"/>
    </contour>
  </outline>
</glyph>
<glyph name="B" format="2">
  <advance width="634"/>
  <unicode hex="0042"/>
  <outline>
    <contour>
      <point x="92" y="708" type="line"/>
      <point x="341" y="708" type="line" smooth="yes"/>
      <point x="473" y="708"/>
      <point x="554" y="641"/>
      <point x="554" y="534" type="curve" smooth="yes"/>
      <point x="554" y="461"/>
      <point x="519" y="409"/>
      <point x="450" y="378" type="curve"/>
      <point x="533" y="357"/>
      <point x="586" y="288"/>
      <point x="586" y="197" type="curve" smooth="yes"/>
      <point x="586" y="74"/>
      <point x="502" y="0"/>
      <point x="362" y="0" type="curve" smooth="yes"/>
      <point x="92" y="0" type="line"/>
    </contour>
    <contour>
      <point x="168" y="644" type="line"/>
      <point x="168" y="412" type="line"/>
      <point x="345" y="412" type="line" smooth="yes"/>
      <point x="435" y="412"/>
      <point x="476" y="449"/>
      <point x="476" y="530" type="curve" smooth="yes"/>
      <point x="476" y="606"/>
      <point x="430" y="644"/>
      <point x="339" y="644" type="curve" smooth="yes"/>
    </contour>
    <contour>
      <point x="168" y="344" type="line"/>
      <point x="168" y="64" type="line"/>
      <point x="362" y="64" type="line" smooth="yes"/>
      <point x="453" y="64"/>
      <point x="506" y="115"/>
      <point x="506" y="202" type="curve" smooth="yes"/>
      <point x="506" y="294"/>
      <point x="448" y="344"/>
      <point x="339" y="344" type="curve" smooth="yes"/>
    </contour>
  </outline>
</glyph>
<glyph name="O" format="2">
  <advance width="650"/>
  <unicode hex="004F"/>
  <anchor x="332" y="881" name="AccentCenter"/>
  <outline>
    <contour>
      <point x="328" y="716" type="curve" smooth="yes"/>
      <point x="413" y="716"/>
      <point x="602" y="680"/>
      <point x="602" y="359" type="curve" smooth="yes"/>
      <point x="602" y="221"/>
      <point x="566" y="-8"/>
      <point x="328" y="-8" type="curve" smooth="yes"/>
      <point x="239" y="-8"/>
      <point x="48" y="30"/>
      <point x="48" y="356" type="curve" smooth="yes"/>
      <point x="48" y="461"/>
      <point x="74" y="716"/>
    </contour>
    <contour>
      <point x="328" y="652" type="curve" smooth="yes"/>
      <point x="195" y="652"/>
      <point x="128" y="553"/>
      <point x="128" y="356" type="curve" smooth="yes"/>
      <point x="128" y="156"/>
      <point x="195" y="56"/>
      <point x="328" y="56" type="curve" smooth="yes"/>
      <point x="503" y="56"/>
      <point x="522" y="235"/>
      <point x="522" y="356" type="curve" smooth="yes"/>
      <point x="522" y="481"/>
      <point x="502" y="652"/>
    </contour>
  </outline>
</glyph>
<glyph name="V" format="2">
  <advance width="641"/>
  <unicode hex="0056"/>
  <outline>
    <contour>
      <point x="32" y="708" type="line"/>
      <point x="118" y="708" type="line"/>
      <point x="320" y="79" type="line"/>
      <point x="523" y="708" type="line"/>
      <point x="609" y="708" type="line"/>
      <point x="369" y="0" type="line"/>
      <point x="271" y="0" type="line"/>
    </contour>
  </outline>
</glyph>
<glyph name="Z" format="2">
  <advance width="624"/>
  <unicode hex="005A"/>
  <outline>
    <contour>
      <point x="72" y="708" type="line"/>
      <point x="547" y="708" type="line"/>
      <point x="547" y="644" type="line"/>
      <point x="160" y="64" type="line"/>
      <point x="552" y="64" type="line"/>
      <point x="552" y="0" type="line"/>
      <point x="72" y="0" type="line"/>
      <point x="72" y="64" type="line"/>
      <point x="459" y="644" type="line"/>
      <point x="72" y="644" type="line"/>
    </contour>
  </outline>
</glyph>
<glyph name="backslash" format="2">
  <advance width="374"/>
  <unicode hex="005C"/>
  <outline>
    <contour>
      <point x="-24" y="772" type="line"/>
      <point x="55" y="772" type="line"/>
      <point x="398" y="-34" type="line"/>
      <point x="319" y="-34" type="line"/>
    </contour>
  </outline>
</glyph>
<glyph name="a" format="2">
  <advance width="535"/>
  <unicode hex="0061"/>
  <anchor x="267" y="687" name="AccentCenter"/>
  <anchor x="257" y="687" name="Ring"/>
  <outline>
    <contour>
      <point x="264" y="528" type="curve" smooth="yes"/>
      <point x="388" y="528"/>
      <point x="454" y="451"/>
      <point x="454" y="331" type="curve" smooth="yes"/>
      <point x="454" y="73" type="line" smooth="yes"/>
      <point x="454" y="73"/>
      <point x="526" y="55"/>
      <point x="526" y="55" type="curve"/>
      <point x="512" y="-10" type="line"/>
      <point x="512" y="-10"/>
      <point x="374" y="19"/>
      <point x="374" y="19" type="curve" smooth="yes"/>
      <point x="374" y="19"/>
      <point x="374" y="77"/>
      <point x="374" y="77" type="curve"/>
      <point x="351" y="34"/>
      <point x="286" y="-8"/>
      <point x="206" y="-8" type="curve" smooth="yes"/>
      <point x="117" y="-8"/>
      <point x="48" y="42"/>
      <point x="48" y="145" type="curve" smooth="yes"/>
      <point x="48" y="245"/>
      <point x="145" y="307"/>
      <point x="283" y="307" type="curve" smooth="yes"/>
      <point x="374" y="307" type="line"/>
      <point x="374" y="345" type="line" smooth="yes"/>
      <point x="374" y="420"/>
      <point x="336" y="464"/>
      <point x="259" y="464" type="curve" smooth="yes"/>
      <point x="205" y="464"/>
      <point x="151" y="449"/>
      <point x="107" y="415" type="curve"/>
      <point x="75" y="465" type="line"/>
      <point x="138" y="509"/>
      <point x="195" y="528"/>
    </contour>
    <contour>
      <point x="374" y="245" type="line"/>
      <point x="280" y="245" type="line" smooth="yes"/>
      <point x="189" y="245"/>
      <point x="128" y="210"/>
      <point x="128" y="144" type="curve" smooth="yes"/>
      <point x="128" y="83"/>
      <point x="169" y="56"/>
      <point x="225" y="56" type="curve" smooth="yes"/>
      <point x="301" y="56"/>
      <point x="354" y="98"/>
      <point x="374" y="134" type="curve"/>
    </contour>
  </outline>
</glyph>
<glyph name="b" format="2">
  <advance width="604"/>
  <unicode hex="0062"/>
  <outline>
    <contour>
      <point x="92" y="716" type="line"/>
      <point x="172" y="716" type="line"/>
      <point x="172" y="438" type="line"/>
      <point x="208" y="497"/>
      <point x="262" y="528"/>
      <point x="333" y="528" type="curve" smooth="yes"/>
      <point x="478" y="528"/>
      <point x="556" y="437"/>
      <point x="556" y="269" type="curve" smooth="yes"/>
      <point x="556" y="89"/>
      <point x="478" y="-8"/>
      <point x="333" y="-8" type="curve" smooth="yes"/>
      <point x="267" y="-8"/>
      <point x="214" y="28"/>
      <point x="170" y="99" type="curve"/>
      <point x="153" y="0" type="line"/>
      <point x="92" y="0" type="line"/>
    </contour>
    <contour>
      <point x="325" y="464" type="curve" smooth="yes"/>
      <point x="251" y="464"/>
      <point x="191" y="424"/>
      <point x="172" y="363" type="curve"/>
      <point x="172" y="151" type="line"/>
      <point x="204" y="93"/>
      <point x="262" y="56"/>
      <point x="325" y="56" type="curve" smooth="yes"/>
      <point x="426" y="56"/>
      <point x="476" y="126"/>
      <point x="476" y="267" type="curve" smooth="yes"/>
      <point x="476" y="403"/>
      <point x="429" y="464"/>
    </contour>
  </outline>
</glyph>
<glyph name="e" format="2">
  <advance width="535"/>
  <unicode hex="0065"/>
  <anchor x="274" y="687" name="AccentCenter"/>
  <outline>
    <contour>
      <point x="279" y="528" type="curve" smooth="yes"/>
      <point x="400" y="528"/>
      <point x="486" y="439"/>
      <point x="486" y="298" type="curve" smooth="yes"/>
      <point x="486" y="267"/>
      <point x="484" y="246"/>
      <point x="480" y="236" type="curve"/>
      <point x="128" y="236" type="line"/>
      <point x="135" y="115"/>
      <point x="191" y="56"/>
      <point x="288" y="56" type="curve" smooth="yes"/>
      <point x="366" y="56"/>
      <point x="416" y="77"/>
      <point x="454" y="99" type="curve"/>
      <point x="479" y="47" type="line"/>
      <point x="435" y="16"/>
      <point x="370" y="-8"/>
      <point x="287" y="-8" type="curve" smooth="yes"/>
      <point x="149" y="-8"/>
      <point x="48" y="92"/>
      <point x="48" y="261" type="curve" smooth="yes"/>
      <point x="48" y="436"/>
      <point x="136" y="528"/>
    </contour>
    <contour>
      <point x="271" y="464" type="curve" smooth="yes"/>
      <point x="177" y="464"/>
      <point x="128" y="405"/>
      <point x="128" y="295" type="curve"/>
      <point x="411" y="295" type="line"/>
      <point x="411" y="318" type="line" smooth="yes"/>
      <point x="411" y="413"/>
      <point x="362" y="464"/>
    </contour>
  </outline>
</glyph>
<glyph name="g" format="2">
  <advance width="552"/>
  <unicode hex="0067"/>
  <outline>
    <contour>
      <point x="243" y="464" type="curve" smooth="yes"/>
      <point x="175" y="464"/>
      <point x="130" y="426"/>
      <point x="130" y="357" type="curve" smooth="yes"/>
      <point x="130" y="282"/>
      <point x="170" y="248"/>
      <point x="243" y="248" type="curve" smooth="yes"/>
      <point x="315" y="248"/>
      <point x="356" y="284"/>
      <point x="356" y="357" type="curve" smooth="yes"/>
      <point x="356" y="424"/>
      <point x="311" y="464"/>
    </contour>
    <contour>
      <point x="246" y="528" type="curve" smooth="yes"/>
      <point x="305" y="528"/>
      <point x="348" y="512"/>
      <point x="383" y="482" type="curve"/>
      <point x="399" y="505"/>
      <point x="430" y="520"/>
      <point x="462" y="520" type="curve" smooth="yes"/>
      <point x="514" y="520" type="line"/>
      <point x="514" y="456" type="line"/>
      <point x="408" y="456" type="line"/>
      <point x="427" y="430"/>
      <point x="436" y="398"/>
      <point x="436" y="361" type="curve" smooth="yes"/>
      <point x="436" y="256"/>
      <point x="366" y="199"/>
      <point x="248" y="190" type="curve" smooth="yes"/>
      <point x="158" y="183"/>
      <point x="124" y="164"/>
      <point x="124" y="119" type="curve" smooth="yes"/>
      <point x="124" y="92"/>
      <point x="150" y="79"/>
      <point x="203" y="79" type="curve" smooth="yes"/>
      <point x="347" y="79" type="line" smooth="yes"/>
      <point x="458" y="79"/>
      <point x="518" y="36"/>
      <point x="518" y="-44" type="curve" smooth="yes"/>
      <point x="518" y="-135"/>
      <point x="422" y="-192"/>
      <point x="269" y="-192" type="curve" smooth="yes"/>
      <point x="177" y="-192"/>
      <point x="104" y="-168"/>
      <point x="16" y="-109" type="curve"/>
      <point x="58" y="-53" type="line"/>
      <point x="131" y="-103"/>
      <point x="202" y="-128"/>
      <point x="271" y="-128" type="curve" smooth="yes"/>
      <point x="382" y="-128"/>
      <point x="438" y="-101"/>
      <point x="438" y="-48" type="curve" smooth="yes"/>
      <point x="438" y="-9"/>
      <point x="409" y="12"/>
      <point x="356" y="12" type="curve" smooth="yes"/>
      <point x="205" y="12" type="line" smooth="yes"/>
      <point x="108" y="12"/>
      <point x="52" y="51"/>
      <point x="52" y="118" type="curve" smooth="yes"/>
      <point x="52" y="159"/>
      <point x="80" y="190"/>
      <point x="135" y="210" type="curve"/>
      <point x="81" y="240"/>
      <point x="52" y="293"/>
      <point x="52" y="361" type="curve" smooth="yes"/>
      <point x="52" y="463"/>
      <point x="138" y="528"/>
    </contour>
  </outline>
</glyph>
<glyph name="l" format="2">
  <advance width="289"/>
  <unicode hex="006C"/>
  <outline>
    <contour>
      <point x="92" y="772" type="line"/>
      <point x="172" y="772" type="line"/>
      <point x="172" y="92" type="line" smooth="yes"/>
      <point x="172" y="67"/>
      <point x="180" y="55"/>
      <point x="198" y="55" type="curve"/>
      <point x="200" y="55"/>
      <point x="215" y="57"/>
      <point x="223" y="58" type="curve" smooth="yes"/>
      <point x="265" y="63" type="line"/>
      <point x="273" y="6" type="line"/>
      <point x="245" y="-3"/>
      <point x="210" y="-8"/>
      <point x="183" y="-8" type="curve" smooth="yes"/>
      <point x="125" y="-8"/>
      <point x="92" y="26"/>
      <point x="92" y="87" type="curve" smooth="yes"/>
    </contour>
  </outline>
</glyph>
<glyph name="o" format="2">
  <advance width="564"/>
  <unicode hex="006F"/>
  <anchor x="277" y="687" name="AccentCenter"/>
  <outline>
    <contour>
      <point x="282" y="464" type="curve" smooth="yes"/>
      <point x="182" y="464"/>
      <point x="127" y="381"/>
      <point x="127" y="258" type="curve" smooth="yes"/>
      <point x="127" y="136"/>
      <point x="180" y="56"/>
      <point x="280" y="56" type="curve" smooth="yes"/>
      <point x="381" y="56"/>
      <point x="436" y="138"/>
      <point x="436" y="260" type="curve" smooth="yes"/>
      <point x="436" y="382"/>
      <point x="381" y="464"/>
    </contour>
    <contour>
      <point x="282" y="528" type="curve" smooth="yes"/>
      <point x="427" y="528"/>
      <point x="516" y="425"/>
      <point x="516" y="257" type="curve" smooth="yes"/>
      <point x="516" y="98"/>
      <point x="421" y="-8"/>
      <point x="280" y="-8" type="curve" smooth="yes"/>
      <point x="139" y="-8"/>
      <point x="48" y="96"/>
      <point x="48" y="259" type="curve" smooth="yes"/>
      <point x="48" y="426"/>
      <point x="137" y="528"/>
    </contour>
  </outline>
</glyph>
<glyph name="t" format="2">
  <advance width="394"/>
  <unicode hex="0074"/>
  <outline>
    <contour>
      <point x="122" y="649" type="line"/>
      <point x="200" y="687" type="line"/>
      <point x="200" y="520" type="line"/>
      <point x="338" y="520" type="line"/>
      <point x="338" y="456" type="line"/>
      <point x="200" y="456" type="line"/>
      <point x="200" y="123" type="line" smooth="yes"/>
      <point x="200" y="76"/>
      <point x="218" y="53"/>
      <point x="254" y="53" type="curve"/>
      <point x="263" y="53"/>
      <point x="272" y="54"/>
      <point x="280" y="55" type="curve" smooth="yes"/>
      <point x="337" y="63" type="line"/>
      <point x="346" y="7" type="line"/>
      <point x="308" y="-3"/>
      <point x="273" y="-8"/>
      <point x="252" y="-8" type="curve" smooth="yes"/>
      <point x="165" y="-8"/>
      <point x="122" y="35"/>
      <point x="122" y="121" type="curve" smooth="yes"/>
      <point x="122" y="456" type="line"/>
      <point x="16" y="456" type="line"/>
      <point x="16" y="520" type="line"/>
      <point x="122" y="520" type="line"/>
    </contour>
  </outline>
</glyph>
<glyph name="asciitilde" format="2">
  <advance width="662"/>
  <unicode hex="007E"/>
  <outline>
    <contour>
      <point x="598" y="343" type="line"/>
      <point x="569" y="284"/>
      <point x="521" y="225"/>
      <point x="431" y="225" type="curve" smooth="yes"/>
      <point x="345" y="225"/>
      <point x="299" y="316"/>
      <point x="227" y="316" type="curve" smooth="yes"/>
      <point x="171" y="316"/>
      <point x="145" y="276"/>
      <point x="122" y="233" type="curve"/>
      <point x="64" y="267" type="line"/>
      <point x="97" y="326"/>
      <point x="146" y="386"/>
      <point x="233" y="386" type="curve" smooth="yes"/>
      <point x="311" y="386"/>
      <point x="373" y="296"/>
      <point x="439" y="296" type="curve" smooth="yes"/>
      <point x="488" y="296"/>
      <point x="509" y="324"/>
      <point x="539" y="381" type="curve"/>
    </contour>
  </outline>
</glyph>
<glyph name="yen" format="2">
  <advance width="595"/>
  <unicode hex="00A5"/>
  <outline>
    <contour>
      <point x="100" y="322" type="line"/>
      <point x="498" y="322" type="line"/>
      <point x="498" y="258" type="line"/>
      <point x="100" y="258" type="line"/>
    </contour>
    <contour>
      <point x="100" y="168" type="line"/>
      <point x="498" y="168" type="line"/>
      <point x="498" y="102" type="line"/>
      <point x="100" y="102" type="line"/>
    </contour>
    <component base="Y"/>
  </outline>
</glyph>
<glyph name="oslash" format="2">
  <advance width="548"/>
  <unicode hex="00F8"/>
  <outline>
    <contour>
      <point x="434" y="520" type="line"/>
      <point x="528" y="520" type="line"/>
      <point x="128" y="0" type="line"/>
      <point x="34" y="0" type="line"/>
    </contour>
    <component base="o"/>
  </outline>
</glyph>
<glyph name="uni030A" format="2">
  <unicode hex="030A"/>
  <anchor x="0" y="840" name="_Ring"/>
  <outline>
    <contour>
      <point x="0" y="937" type="curve" smooth="yes"/>
      <point x="55" y="937"/>
      <point x="100" y="898"/>
      <point x="100" y="840" type="curve" smooth="yes"/>
      <point x="100" y="782"/>
      <point x="55" y="743"/>
      <point x="0" y="743" type="curve" smooth="yes"/>
      <point x="-55" y="743"/>
      <point x="-100" y="782"/>
      <point x="-100" y="840" type="curve" smooth="yes"/>
      <point x="-100" y="898"/>
      <point x="-55" y="937"/>
    </contour>
    <contour>
      <point x="0" y="883" type="curve" smooth="yes"/>
      <point x="-26" y="883"/>
      <point x="-46" y="866"/>
      <point x="-46" y="840" type="curve" smooth="yes"/>
      <point x="-46" y="814"/>
      <point x="-26" y="797"/>
      <point x="0" y="797" type="curve" smooth="yes"/>
      <point x="26" y="797"/>
      <point x="46" y="814"/>
      <point x="46" y="840" type="curve" smooth="yes"/>
      <point x="46" y="866"/>
      <point x="26" y="883"/>
    </contour>
  </outline>
</glyph>
